REM MD5 5d2d683ec1f31ef39af6a3c933f6a297
FILE "3x3 Eyes - Kyuusei Koushu (Japan) (Disc 1).bin" BINARY
  TRACK 01 MODE2/2352
    INDEX 01 00:00:00
  TRACK 02 AUDIO
    INDEX 00 52:28:12
    INDEX 01 52:30:12
  TRACK 03 AUDIO
    INDEX 00 54:14:22
    INDEX 01 54:16:22
  TRACK 04 AUDIO
    INDEX 00 55:39:12
    INDEX 01 55:41:12
  TRACK 05 AUDIO
    INDEX 00 60:53:53
    INDEX 01 60:55:53
REM LEADOUT 65:33:66
